 <svg  version="1.0" xmlns="http://www.w3.org/2000/svg"  width="360.000000pt" height="360.000000pt" viewBox="0 0 360.000000 360.000000"  preserveAspectRatio="xMidYMid meet">  <g transform="translate(0.000000,360.000000) scale(0.100000,-0.100000)" fill="#df0101" stroke="none"> <path d="M1917 2659 c-29 -17 -40 -57 -23 -90 13 -25 13 -33 0 -59 -14 -26 -14 -34 -1 -59 12 -24 12 -32 -1 -56 -12 -25 -12 -32 1 -59 12 -27 12 -35 -1 -62 -12 -27 -12 -34 0 -59 13 -24 13 -32 1 -56 -13 -25 -13 -33 1 -59 13 -27 13 -33 0 -60 -14 -26 -14 -34 -1 -59 12 -24 12 -32 0 -56 -12 -23 -13 -32 -1 -58 8 -21 12 -64 9 -125 -2 -78 0 -96 14 -112 10 -11 23 -16 29 -13 6 4 -1 -9 -16 -28 -23 -31 -34 -78 -29 -124 3 -22 21 22 21 50 0 24 19 48 102 132 l101 102 -43 -4 c-38 -2 -51 -10 -98 -59 -29 -31 -56 -56 -58 -56 -2 0 -4 41 -4 90 l0 90 240 0 c239 0 240 0 240 -22 0 -15 -118 -139 -387 -410 -379 -380 -389 -389 -422 -384 -18 3 -35 7 -37 9 -2 2 164 171 369 376 l372 373 -45 -7 c-41 -6 -56 -18 -187 -147 -81 -81 -139 -147 -136 -154 3 -7 -11 -29 -30 -49 -23 -24 -37 -32 -40 -23 -3 8 -76 -57 -185 -166 -171 -170 -180 -178 -203 -166 -13 7 -26 15 -29 17 -2 2 68 76 155 163 149 149 162 160 197 160 40 0 64 19 26 21 -13 1 -30 2 -38 3 -8 1 -26 -4 -40 -10 -23 -11 -26 -10 -27 8 -2 25 -30 68 -44 68 -6 0 -2 -15 9 -33 l20 -34 -156 -156 -156 -157 -23 22 -24 22 162 162 c89 89 161 166 159 170 -1 5 4 26 11 47 16 49 2 113 -24 109 -12 -2 -17 4 -17 20 0 18 -40 -17 -188 -165 -103 -103 -190 -187 -194 -187 -3 0 -10 14 -13 31 -7 30 0 38 151 190 149 149 161 159 196 159 21 0 38 5 38 10 0 19 -86 11 -105 -10 -20 -22 -35 -22 -53 3 -22 29 -91 23 -130 -12 -25 -23 -32 -26 -32 -13 0 11 -13 3 -43 -26 -23 -23 -46 -42 -50 -42 -4 0 -7 20 -7 45 l0 45 45 0 c25 0 45 5 45 10 0 16 -77 12 -94 -6 -23 -23 -21 -81 4 -96 24 -15 25 -31 5 -48 -17 -14 -21 -100 -5 -100 6 0 10 17 10 38 0 34 8 46 83 120 77 77 85 82 125 82 23 0 42 -1 42 -3 0 -2 -56 -59 -124 -127 -97 -97 -122 -127 -114 -138 8 -9 8 -16 0 -24 -21 -21 -13 -59 17 -89 20 -20 28 -35 24 -50 -8 -29 15 -66 44 -74 16 -4 23 -11 19 -20 -3 -8 0 -15 6 -15 6 0 8 -3 5 -7 -11 -11 24 -43 48 -43 11 0 26 5 32 11 9 9 11 7 7 -8 -8 -28 26 -63 64 -68 17 -2 32 1 32 6 0 5 5 9 12 9 6 0 8 -3 5 -6 -14 -14 15 -42 49 -49 30 -5 43 -2 67 16 16 12 27 17 23 11 -3 -6 -3 -13 2 -16 5 -3 165 152 358 345 192 192 352 349 356 349 5 0 8 -17 8 -38 0 -36 -14 -51 -318 -355 l-317 -317 -45 0 c-32 0 -41 -3 -33 -11 18 -18 78 -14 109 6 16 11 37 20 46 20 10 0 137 119 283 265 225 225 263 268 259 287 -4 13 -2 23 3 23 13 0 33 45 33 74 0 13 -9 35 -21 49 l-20 26 22 30 c22 30 21 81 -2 81 -5 0 -1 10 11 22 22 24 27 77 8 96 -10 10 -10 17 0 32 14 24 15 55 2 79 -6 12 -5 29 3 50 9 24 9 38 -1 63 -8 21 -8 36 -2 42 14 14 12 70 -2 84 -10 10 -10 17 0 32 15 25 16 72 0 88 -9 9 -9 17 2 36 7 15 10 36 6 53 -9 34 -9 48 0 91 5 26 2 38 -17 58 l-22 24 -226 0 c-139 0 -233 -5 -244 -11z m483 -59 l0 -30 -240 0 -240 0 0 30 0 30 240 0 240 0 0 -30z m0 -120 l0 -30 -240 0 -240 0 0 30 0 30 240 0 240 0 0 -30z m0 -115 l0 -35 -240 0 -240 0 0 35 0 35 240 0 240 0 0 -35z m-2 -117 l-3 -33 -237 -3 -238 -3 0 36 0 35 241 0 240 0 -3 -32z m2 -118 l0 -30 -240 0 -240 0 0 30 0 30 240 0 240 0 0 -30z m0 -120 l0 -30 -240 0 -240 0 0 30 0 30 240 0 240 0 0 -30z m-2 -117 l3 -33 -240 0 -241 0 0 35 0 35 238 -2 237 -3 3 -32z m-910 -540 c-95 -95 -176 -173 -181 -173 -4 0 -13 11 -19 25 -11 24 -3 34 178 218 l189 192 3 -44 3 -45 -173 -173z"/> <path d="M2398 1504 c-5 -4 -8 -23 -8 -43 0 -32 -16 -52 -223 -259 l-223 -223 -51 -2 c-39 -2 -49 -5 -41 -14 27 -33 111 -3 175 64 23 24 32 29 35 18 4 -19 263 237 263 260 0 8 17 33 37 55 21 22 40 51 44 64 7 30 1 90 -8 80z"/> <path d="M2320 1247 c-34 -60 -115 -144 -185 -189 -48 -32 -54 -38 -30 -33 37 8 88 41 140 92 49 48 75 80 75 93 0 6 5 10 10 10 6 0 9 3 8 8 -1 4 2 17 6 30 13 40 1 34 -24 -11z"/> </g> </svg> 